{"title":"White Lion - 2008 - Return Of The Pride [Eac-Ape]","uid":4192888,"size":419492119,"categoryP":"audio","categoryS":"music","magnet":"?xt=urn:btih:db88d278a7ca69f67a2cc91acee198f5f7cb1166&amp;dn=White+Lion+-+2008+-+Return+Of+The+Pride+%5BEac-Ape%5D&amp;tr=udp%3A%2F%2Ftracker.openbittorrent.com%3A80&amp;tr=udp%3A%2F%2Fopen.demonii.com%3A1337&amp;tr=udp%3A%2F%2Ftracker.coppersurfer.tk%3A6969&amp;tr=udp%3A%2F%2Fexodus.desync.com%3A6969","seeders":0,"leechers":1,"uploader":"eurotronic","files":10,"time":1211055338,"description":"Exact Audio Copy V0.99 prebeta 4 from 23. January 2008\n\nEAC extraction logfile from 15. March 2008, 11:41\n\nWhite Lion / Return Of The Pride\n\nUsed drive  : TSSTcorpCD/DVDW SH-S182D   Adapter: 0  ID: 0\n\nRead mode               : Secure\nUtilize accurate stream : Yes\nDefeat audio cache      : Yes\nMake use of C2 pointers : No\n\nRead offset correction                      : 6\nOverread into Lead-In and Lead-Out          : No\nFill up missing offset samples with silence : Yes\nDelete leading and trailing silent blocks   : No\nNull samples used in CRC calculations       : No\nUsed interface                              : Installed external ASPI interface\n\nUsed output format : Internal WAV Routines\nSample format      : 44.100 Hz; 16 Bit; Stereo\n\n\nTOC of the extracted CD\n\n     Track |   Start  |  Length  | Start sector | End sector \n    ---------------------------------------------------------\n        1  |  0:00.00 |  8:44.21 |         0    |    39320   \n        2  |  8:44.21 |  5:08.27 |     39321    |    62447   \n        3  | 13:52.48 |  4:52.15 |     62448    |    84362   \n        4  | 18:44.63 |  4:59.32 |     84363    |   106819   \n        5  | 23:44.20 |  4:14.01 |    106820    |   125870   \n        6  | 27:58.21 |  7:32.59 |    125871    |   159829   \n        7  | 35:31.05 |  4:50.58 |    159830    |   181637   \n        8  | 40:21.63 |  4:24.41 |    181638    |   201478   \n        9  | 44:46.29 |  4:55.65 |    201479    |   223668   \n       10  | 49:42.19 |  4:00.56 |    223669    |   241724   \n       11  | 53:43.00 |  3:50.52 |    241725    |   259026   \n\n\nRange status and errors\n\nSelected range\n\n     Filename D:\\Cd\\To Share\\White Lion - 2008 - Return Of The Pride [Eac-Ape] by Sapo Malo\\White Lion - Return Of The Pride.wav\n\n     Peak level 99.1 %\n     Range quality 100.0 %\n     Copy CRC 6B6567CE\n     Copy OK\n\nNo errors occurred\n\n \nAccurateRip summary\n \nTrack  1  not present in database\nTrack  2  not present in database\nTrack  3  not present in database\nTrack  4  not present in database\nTrack  5  not present in database\nTrack  6  not present in database\nTrack  7  not present in database\nTrack  8  not present in database\nTrack  9  not present in database\nTrack 10  not present in database\nTrack 11  not present in database\n \nNone of the tracks are present in the AccurateRip database\n\nEnd of status report\n","torrent":{"xt":"urn:btih:db88d278a7ca69f67a2cc91acee198f5f7cb1166","amp;dn":"White+Lion+-+2008+-+Return+Of+The+Pride+%5BEac-Ape%5D","amp;tr":["udp%3A%2F%2Ftracker.openbittorrent.com%3A80","udp%3A%2F%2Fopen.demonii.com%3A1337","udp%3A%2F%2Ftracker.coppersurfer.tk%3A6969","udp%3A%2F%2Fexodus.desync.com%3A6969"],"infoHash":"db88d278a7ca69f67a2cc91acee198f5f7cb1166","infoHashBuffer":{"type":"Buffer","data":[219,136,210,120,167,202,105,246,122,44,201,26,206,225,152,245,247,203,17,102]},"announce":[],"urlList":[]}}